<?xml version="1.0" encoding="UTF-8"?>
<svg id="Layer_1" data-name="Layer 1" xmlns="http://www.w3.org/2000/svg" viewBox="0 0 415 475">
  <defs>
    <style>
      .cls-1 {
        stroke-width: 0px;
      }
    </style>
  </defs>
  <path class="cls-1" d="M393.13,199.3c-14.58-12.37-33.52-18.55-56.83-18.55-18.32,0-34.17,3.6-47.56,10.8-13.39,7.2-22.63,16.78-27.72,28.74h-2.6c-4.01-12.14-12.03-21.76-24.07-28.88-12.03-7.11-26.61-10.67-43.74-10.67s-31.44,3.53-43.58,10.6c-12.14,7.07-20.81,16.72-26.02,28.95h-.86V0H0v475h415v-82.8h0v-140.38c0-22.65-7.29-40.16-21.87-52.52ZM126.71,246.72c3.58-5.75,8.43-10.24,14.55-13.45,6.12-3.21,13.03-4.82,20.73-4.82,11.38,0,20.57,3.04,27.56,9.11,6.99,6.07,10.49,14.23,10.49,24.46v130.19h-78.7v-125.29c0-7.7,1.79-14.43,5.37-20.18ZM267.2,392.2v-127.47c0-10.87,3.52-19.64,10.57-26.3,7.04-6.66,16.85-9.99,29.43-9.99,11.06,0,20.27,2.9,27.64,8.7,7.37,5.8,11.06,14.5,11.06,26.09v128.96h-78.7Z"/>
</svg>